<svg xmlns="http://www.w3.org/2000/svg" viewBox="0 0 1600 720"><defs><linearGradient id="g" x1="0" x2="1"><stop stop-color="#041810"/><stop offset="1" stop-color="#0d3b2b"/></linearGradient><radialGradient id="sun"><stop stop-color="#ffe5a0"/><stop offset="1" stop-color="#d1a33d" stop-opacity="0"/></radialGradient></defs><rect width="1600" height="720" fill="url(#g)"/><circle cx="1290" cy="120" r="210" fill="url(#sun)"/><path d="M0 540 C260 440 430 505 650 420 C840 350 1030 410 1260 330 C1390 286 1505 300 1600 250 V720 H0Z" fill="#174d35"/><path d="M0 605 C240 520 470 600 760 470 C970 375 1195 430 1600 315 V720 H0Z" fill="#2f7551"/><path d="M815 710 C860 530 915 385 1000 245" stroke="#e8d174" stroke-width="8" stroke-linecap="round" fill="none"/><circle cx="1000" cy="245" r="20" fill="#f6dc72" stroke="#fff" stroke-width="5"/><circle cx="840" cy="605" r="16" fill="#55b8ff" stroke="#fff" stroke-width="5"/><rect x="92" y="86" width="580" height="230" rx="28" fill="#071f17" fill-opacity=".86" stroke="#d8bc62" stroke-opacity=".4"/><text x="132" y="150" fill="#efd375" font-family="Arial" font-size="30" font-weight="700">PLAY</text><text x="132" y="210" fill="#fff" font-family="Georgia" font-size="64" font-weight="700">Full-screen GPS golf.</text><text x="132" y="263" fill="#bcd0c5" font-family="Arial" font-size="28">Courses · live yardage · planner · scoring · shot tracking</text></svg>